<?xml version="1.0" standalone="no"?>
<!DOCTYPE svg PUBLIC "-//W3C//DTD SVG 20010904//EN"
 "http://www.w3.org/TR/2001/REC-SVG-20010904/DTD/svg10.dtd">
<svg version="1.0" xmlns="http://www.w3.org/2000/svg"
 width="260.000000pt" height="260.000000pt" viewBox="0 0 260.000000 260.000000"
 preserveAspectRatio="xMidYMid meet">
<metadata>
Created by potrace 1.14, written by Peter Selinger 2001-2017
</metadata>
<g transform="translate(0.000000,260.000000) scale(0.100000,-0.100000)"
fill="#000000" stroke="none">
<path d="M0 1300 l0 -1300 1300 0 1300 0 0 1300 0 1300 -1300 0 -1300 0 0
-1300z m2450 0 l0 -1150 -1150 0 -1150 0 0 1150 0 1150 1150 0 1150 0 0 -1150z"/>
<path d="M1760 2318 c-176 -51 -337 -121 -483 -208 -88 -52 -229 -150 -274
-190 -9 -7 -19 -8 -31 -1 -13 7 -27 6 -46 -4 -27 -14 -29 -13 -77 36 -47 48
-97 77 -129 73 -8 -1 -23 -2 -33 -3 -11 0 -34 -16 -53 -35 -28 -28 -34 -42
-34 -75 0 -56 19 -98 67 -146 l40 -40 -18 -30 c-17 -27 -17 -32 -3 -53 15 -23
10 -41 -18 -62 -24 -19 -168 -254 -222 -363 -75 -152 -138 -328 -134 -372 6
-57 32 -42 94 52 65 97 256 329 387 467 l85 89 31 -35 c38 -44 64 -52 94 -28
l23 18 601 -599 c331 -329 613 -603 628 -609 71 -27 149 4 161 65 15 80 -4
104 -352 455 -824 831 -855 864 -835 880 36 29 33 48 -15 96 l-46 46 45 41
c197 183 386 338 530 434 53 36 97 71 97 79 0 11 -32 36 -42 33 -2 -1 -19 -6
-38 -11z"/>
</g>
</svg>
